<?xml version="1.0" encoding="UTF-8" standalone="no"?>
<!DOCTYPE svg PUBLIC "-//W3C//DTD SVG 1.1//EN" "http://www.w3.org/Graphics/SVG/1.1/DTD/svg11.dtd">
<svg height="100%" stroke-miterlimit="10" style="fill-rule:nonzero;clip-rule:evenodd;stroke-linecap:round;stroke-linejoin:round;" version="1.1" viewBox="0 0 12 12" width="100%" xml:space="preserve" xmlns="http://www.w3.org/2000/svg" xmlns:xlink="http://www.w3.org/1999/xlink">
<defs/>
<g id="1">
<path d="M1 3L2 3L2 4L3 4L3 5L9 5L9 6L10 6L10 8L9 8L9 9L10 9L10 10L9 10L9 9L8 9L8 10L7 10L7 9L5 9L5 10L4 10L4 9L3 9L3 10L2 10L2 9L3 9L3 8L2 8L2 6L3 6L3 8L4 8L4 9L5 9L5 8L6 8L6 7L7 7L7 8L8 8L8 7L9 7L9 6L5 6L5 7L4 7L4 6L3 6L3 5L2 5L2 4L1 4L1 3Z" fill="#272727" fill-rule="nonzero" opacity="1" stroke="none"/>
<path d="M3 6L4 6L4 7L5 7L5 6L9 6L9 7L8 7L8 8L7 8L7 7L6 7L6 8L5 8L5 9L4 9L4 8L3 8L3 6Z" fill="#c9a275" fill-rule="nonzero" opacity="1" stroke="none"/>
</g>
</svg>
