<?xml version="1.0" encoding="UTF-8" standalone="no"?>
<!DOCTYPE svg PUBLIC "-//W3C//DTD SVG 1.1//EN" "http://www.w3.org/Graphics/SVG/1.1/DTD/svg11.dtd">
<svg height="100%" stroke-miterlimit="10" style="fill-rule:nonzero;clip-rule:evenodd;stroke-linecap:round;stroke-linejoin:round;" version="1.1" viewBox="0 0 32 32" width="100%" xml:space="preserve" xmlns="http://www.w3.org/2000/svg" xmlns:xlink="http://www.w3.org/1999/xlink">
<defs/>
<g id="1">
<path d="M29.793 13.4745C29.793 13.4745 25.288 8.9735 23.534 7.2205C23.388 7.0735 23.196 7.0005 23.004 7.0005C22.812 7.0005 22.62 7.0735 22.474 7.2205C20.72 8.9725 16.217 13.4725 16.217 13.4725C16.072 13.6175 16 13.8085 16 13.9995C16.001 14.1905 16.074 14.3825 16.221 14.5295C16.514 14.8225 16.987 14.8235 17.278 14.5335L22.254 9.5575L22.254 24.2495C22.254 24.6635 22.59 24.9995 23.004 24.9995C23.418 24.9995 23.754 24.6635 23.754 24.2495L23.754 9.5575L28.733 14.5355C29.022 14.8245 29.494 14.8225 29.787 14.5295C29.934 14.3825 30.008 14.1905 30.008 13.9995C30.009 13.8085 29.937 13.6195 29.793 13.4745Z" fill="#555555" fill-rule="nonzero" opacity="1" stroke="none"/>
</g>
<g id="2">
<path d="M2.207 18.5255C2.207 18.5255 6.712 23.0265 8.466 24.7795C8.612 24.9265 8.804 24.9995 8.996 24.9995C9.188 24.9995 9.38 24.9265 9.526 24.7795C11.28 23.0275 15.783 18.5275 15.783 18.5275C15.928 18.3825 16 18.1915 16 18.0005C15.999 17.8095 15.926 17.6175 15.779 17.4705C15.486 17.1775 15.013 17.1765 14.722 17.4665L9.746 22.4425L9.746 7.7505C9.746 7.3365 9.41 7.0005 8.996 7.0005C8.582 7.0005 8.246 7.3365 8.246 7.7505L8.246 22.4425L3.267 17.4645C2.978 17.1755 2.506 17.1775 2.213 17.4705C2.066 17.6175 1.992 17.8095 1.992 18.0005C1.991 18.1915 2.063 18.3805 2.207 18.5255Z" fill="#555555" fill-rule="nonzero" opacity="1" stroke="none"/>
</g>
</svg>
