<?xml version="1.0" encoding="UTF-8" standalone="no"?>
<!DOCTYPE svg PUBLIC "-//W3C//DTD SVG 1.1//EN" "http://www.w3.org/Graphics/SVG/1.1/DTD/svg11.dtd">
<svg height="100%" stroke-miterlimit="10" style="fill-rule:nonzero;clip-rule:evenodd;stroke-linecap:round;stroke-linejoin:round;" version="1.1" viewBox="0 0 24 24" width="100%" xml:space="preserve" xmlns="http://www.w3.org/2000/svg" xmlns:xlink="http://www.w3.org/1999/xlink">
<defs/>
<g id="1">
<path d="M11.75 10.6893L6.62348 5.56282C6.33073 5.27007 5.85556 5.27007 5.56282 5.56282C5.27007 5.85556 5.27007 6.33073 5.56282 6.62348L10.6893 11.75L5.56282 16.8765C5.27007 17.1693 5.27007 17.6444 5.56282 17.9372C5.85556 18.2299 6.33073 18.2299 6.62348 17.9372L11.75 12.8107L16.8765 17.9372C17.1693 18.2299 17.6444 18.2299 17.9372 17.9372C18.2299 17.6444 18.2299 17.1693 17.9372 16.8765L12.8107 11.75L17.9372 6.62348C18.2299 6.33073 18.2299 5.85556 17.9372 5.56282C17.6444 5.27007 17.1693 5.27007 16.8765 5.56282L11.75 10.6893Z" fill="#ffffff" fill-rule="nonzero" opacity="1" stroke="none"/>
</g>
</svg>
